<?xml version="1.0" encoding="UTF-8" standalone="no"?>
<svg
   xmlns:dc="http://purl.org/dc/elements/1.1/"
   xmlns:cc="http://creativecommons.org/ns#"
   xmlns:rdf="http://www.w3.org/1999/02/22-rdf-syntax-ns#"
   xmlns:svg="http://www.w3.org/2000/svg"
   xmlns="http://www.w3.org/2000/svg"
   xmlns:sodipodi="http://sodipodi.sourceforge.net/DTD/sodipodi-0.dtd"
   xmlns:inkscape="http://www.inkscape.org/namespaces/inkscape"
   version="1.1"
   width="850"
   height="600"
   id="svg2"
   sodipodi:docname="medicalheart.svg"
   inkscape:version="1.0.1 (3bc2e813f5, 2020-09-07)">
  <sodipodi:namedview
     pagecolor="#ffffff"
     bordercolor="#666666"
     borderopacity="1"
     objecttolerance="10"
     gridtolerance="10"
     guidetolerance="10"
     inkscape:pageopacity="0"
     inkscape:pageshadow="2"
     inkscape:window-width="1920"
     inkscape:window-height="986"
     id="namedview6"
     showgrid="false"
     inkscape:zoom="1.0878566"
     inkscape:cx="486.17356"
     inkscape:cy="304.67138"
     inkscape:window-x="-11"
     inkscape:window-y="-11"
     inkscape:window-maximized="1"
     inkscape:current-layer="svg2"
     inkscape:document-rotation="0" />
  <metadata
     id="metadata10">
    <rdf:RDF>
      <cc:Work
         rdf:about="">
        <dc:format>image/svg+xml</dc:format>
        <dc:type
           rdf:resource="http://purl.org/dc/dcmitype/StillImage" />
        <dc:title></dc:title>
      </cc:Work>
    </rdf:RDF>
  </metadata>
  <defs
     id="defs8">
    <inkscape:path-effect
       effect="copy_rotate"
       starting_point="0,0"
       origin="65,65"
       id="path-effect835"
       is_visible="true"
       lpeversion="1"
       method="normal"
       num_copies="2"
       starting_angle="0"
       rotation_angle="180"
       gap="-0.01"
       copies_to_360="true"
       mirror_copies="false"
       split_items="false" />
  </defs>
  <g
     id="g834"
     transform="matrix(3.047619,0,0,3.047619,226.90476,101.90561)"
     style="stroke-width:0.328125">
    <path
       id="path4"
       style="display:inline;fill:#ffffff;stroke:none;stroke-width:3.28125;stroke-linejoin:round;stroke-miterlimit:4;stroke-dasharray:none;stroke-opacity:1;paint-order:stroke markers fill"
       d="M 37,7 C 17.45098,7 2,22.45098 2,42 2,47.606246 2.4998566,52.573213 3.5488281,57.123047 l 2.0625,6.701172 C 9.4349464,73.584436 16.239549,81.034983 25.474609,89.4375 c 9.235061,8.402517 21.096956,17.95168 36.082032,32.1875 1.929826,1.83259 4.956892,1.83259 6.886718,0 14.985076,-14.23582 26.846972,-23.784983 36.082031,-32.1875 9.23506,-8.402517 16.03967,-15.853064 19.86328,-25.613281 l 2.06247,-6.701172 C 127.50018,52.573206 128,47.606245 128,42 128,22.45098 112.54902,7 93,7 81.643195,7 71.885942,12.490897 65,20.572266 58.114058,12.490897 48.356805,7 37,7 Z"
       sodipodi:nodetypes="ssccsccsccsscs" />
    <path
       id="path846"
       style="display:inline;fill:#ff0707;stroke:none;stroke-width:3.28125;stroke-linejoin:round;stroke-miterlimit:4;stroke-dasharray:none;stroke-opacity:1;paint-order:stroke markers fill"
       d="M 37,12 C 20,12 7,25 7,42 7,47.308961 7.4734822,51.886419 8.421875,56 H 34.367188 L 52.375,76.708984 76.376953,30.710938 98.367188,56 H 121.57812 C 122.52652,51.886419 123,47.308961 123,42 123,25 110,12 93,12 81,12 71,19 65,29 59,19 49,12 37,12 Z M 77.625,41.291016 53.623047,87.289062 31.632812,62 H 10.267578 C 17.078351,79.385266 34.739748,89.252761 65,118 95.260252,89.252761 112.92165,79.385266 119.73242,62 H 95.632812 Z" />
  </g>
</svg>
